# xmcd
#
# Track frame offsets:
#	150
#	24190
#	42182
#	64007
#	82240
#	97212
#	113462
#	137912
#	157212
#	180640
#	195692
#	213235
#	229865
#	250157
#	265740
#	281117
#
# Disc length: 3970 seconds
#
# Revision: 1
# Processed by: cddbd v1.5.2PL0 Copyright (c) Steve Scherf et al.
# Submitted via: audiograbber 1.81.02
#
DISCID=e60f8010
DTITLE=Charlie Daniels - 16 Biggest Hits
DYEAR=2006
DGENRE=Country
TTITLE0=Uneasy Rider
TTITLE1=The South's Gonna Do It Again
TTITLE2=Trudy
TTITLE3=Long Haired Country Boy
TTITLE4=Midnight Wind
TTITLE5=The Devil Went Down To Georgia
TTITLE6=Reflections
TTITLE7=The Legend Of Wooley Swamp
TTITLE8=Carolina (I Remember You)
TTITLE9=In America
TTITLE10=Still In Saigon
TTITLE11=Drinkin' My Baby Goodbye
TTITLE12=Cowboy Hat In Dallas
TTITLE13=Boogie Woogie Fiddle Country Blues
TTITLE14=Simple Man
TTITLE15=(What This World Needs Is) A Few More Rednecks
EXTD=
EXTT0=
EXTT1=
EXTT2=
EXTT3=
EXTT4=
EXTT5=
EXTT6=
EXTT7=
EXTT8=
EXTT9=
EXTT10=
EXTT11=
EXTT12=
EXTT13=
EXTT14=
EXTT15=
PLAYORDER=
